<svg width="22" height="20" viewBox="0 0 22 20" fill="none" xmlns="http://www.w3.org/2000/svg">
<path d="M20.2753 2.69628C20.8919 2.07969 20.8919 1.08 20.2753 0.463417C19.6588 -0.15317 18.6591 -0.15317 18.0425 0.463417L10.8914 7.61447L3.74039 0.463417C3.1238 -0.15317 2.12411 -0.15317 1.50753 0.463417C0.89094 1.08 0.89094 2.07969 1.50753 2.69628L8.65858 9.84733L1.20121 17.3047C0.584623 17.9213 0.584623 18.921 1.20121 19.5376C1.8178 20.1541 2.81748 20.1541 3.43407 19.5376L10.8914 12.0802L18.3488 19.5375C18.9654 20.1541 19.9651 20.1541 20.5817 19.5375C21.1983 18.921 21.1983 17.9213 20.5817 17.3047L13.1243 9.84732L20.2753 2.69628Z" fill="#C1C6CD"/>
</svg>
