<svg xmlns="http://www.w3.org/2000/svg" viewBox="0 0 790 337"><title>made_for_matrix</title><g fill="#FFF"><path d="M8.9 7.7v321.4H32v7.7H0V0h32v7.7zM98 132.6v16.3h.5c4.3-6.2 9.6-11 15.7-14.4 6.1-3.4 13.1-5.1 21-5.1 7.6 0 14.5 1.5 20.8 4.4 6.3 2.9 11 8.1 14.3 15.6 3.6-5.3 8.4-9.9 14.5-13.9s13.4-6 21.7-6c6.4 0 12.2.8 17.7 2.3 5.4 1.5 10.1 4 13.9 7.4 3.9 3.4 6.9 7.9 9.1 13.4 2.2 5.5 3.3 12.1 3.3 19.9v80.4h-33v-68.1c0-4-.2-7.8-.5-11.4-.3-3.6-1.2-6.7-2.6-9.3-1.4-2.6-3.4-4.7-6.2-6.3-2.7-1.5-6.4-2.3-11-2.3s-8.4.9-11.3 2.7c-2.9 1.8-5.1 4.1-6.7 7-1.6 2.9-2.7 6.1-3.3 9.8-.5 3.6-.8 7.3-.8 11v66.9h-33v-67.4c0-3.6-.1-7.1-.2-10.6-.2-3.5-.8-6.7-2-9.6-1.2-2.9-3.1-5.3-5.8-7.1-2.7-1.8-6.7-2.7-12-2.7-1.6 0-3.6.3-6.2 1s-5 2-7.4 3.9c-2.4 1.9-4.5 4.7-6.2 8.4-1.7 3.6-2.6 8.4-2.6 14.3v69.7h-33V132.6H98zM271.5 150.3c3.4-5.1 7.7-9.2 13-12.3 5.3-3.1 11.2-5.3 17.8-6.6 6.6-1.3 13.2-2 19.9-2 6 0 12.2.4 18.4 1.3 6.2.9 11.9 2.5 17 5s9.3 5.9 12.5 10.3c3.3 4.4 4.9 10.3 4.9 17.5V226c0 5.4.3 10.6.9 15.6.6 5 1.7 8.7 3.3 11.2h-33.5c-.6-1.9-1.1-3.8-1.5-5.7-.4-1.9-.7-3.9-.8-5.9-5.3 5.4-11.5 9.2-18.6 11.4-7.1 2.2-14.4 3.3-21.8 3.3-5.7 0-11.1-.7-16-2.1-5-1.4-9.3-3.6-13-6.5-3.7-2.9-6.6-6.7-8.7-11.1-2.1-4.4-3.1-9.8-3.1-16 0-6.8 1.2-12.4 3.6-16.8 2.4-4.4 5.5-7.9 9.3-10.6 3.8-2.6 8.1-4.6 13-5.9 4.9-1.3 9.8-2.4 14.8-3.1 5-.8 9.8-1.4 14.6-1.9 4.8-.5 9.1-1.2 12.8-2.1 3.7-.9 6.7-2.3 8.8-4.1 2.2-1.8 3.2-4.4 3-7.8 0-3.6-.6-6.4-1.7-8.5-1.2-2.1-2.7-3.7-4.6-4.9-1.9-1.2-4.2-1.9-6.7-2.3-2.6-.4-5.3-.6-8.2-.6-6.5 0-11.6 1.4-15.3 4.2-3.7 2.8-5.9 7.4-6.5 13.9h-33c.1-7.9 2-14.3 5.4-19.4zm65.2 46.5c-2.1.7-4.3 1.3-6.7 1.7-2.4.5-4.9.9-7.6 1.2-2.6.3-5.3.7-7.9 1.2-2.5.5-4.9 1.1-7.3 1.9-2.4.8-4.5 1.8-6.3 3.1-1.8 1.3-3.2 3-4.3 5-1.1 2-1.6 4.6-1.6 7.7 0 2.9.5 5.4 1.6 7.4s2.6 3.6 4.4 4.8c1.8 1.2 4 2 6.5 2.4 2.5.5 5 .7 7.7.7 6.5 0 11.5-1.1 15.1-3.3 3.6-2.2 6.2-4.8 7.9-7.8 1.7-3 2.7-6.1 3.1-9.2.4-3.1.6-5.6.6-7.4v-12.3c-1.4 1.3-3.1 2.2-5.2 2.9zM461.8 132.6v22.1h-24.2v59.5c0 5.6.9 9.3 2.8 11.1 1.9 1.9 5.6 2.8 11.2 2.8 1.9 0 3.6-.1 5.3-.2 1.7-.2 3.3-.4 4.9-.7v25.6c-2.8.5-5.9.8-9.3.9-3.4.1-6.7.2-10 .2-5.1 0-10-.4-14.5-1-4.6-.7-8.6-2-12.1-4.1-3.5-2-6.2-4.9-8.2-8.6-2-3.7-3-8.6-3-14.6v-70.9h-20v-22.1h20v-36h33v36h24.1zM509 132.6v22.3h.5c1.5-3.7 3.6-7.2 6.3-10.3 2.6-3.2 5.7-5.9 9.1-8.1 3.4-2.2 7-4 10.9-5.2 3.9-1.2 7.9-1.9 12.1-1.9 2.2 0 4.6.4 7.2 1.2v30.7c-1.6-.3-3.4-.6-5.6-.8-2.2-.2-4.3-.4-6.3-.4-6 0-11.2 1-15.3 3-4.2 2-7.5 4.8-10.1 8.2-2.6 3.5-4.4 7.6-5.5 12.2-1.1 4.6-1.6 9.7-1.6 15.1v54.1h-33V132.6H509zM568.9 114V86.8h33V114h-33zm33 18.6v120.1h-33V132.6h33zM619.1 132.6h37.6l21.1 31.4 20.9-31.4h36.5l-39.5 56.2 44.4 63.9h-37.6l-25.1-37.9-25.1 37.9h-36.9l43.2-63.2zM780.4 329.1V7.7h-23.1V0h32v336.8h-32v-7.7zM75.6 67.6v4.3h.1c1.2-1.7 2.6-2.9 4.2-3.8 1.6-.9 3.5-1.4 5.6-1.4 2 0 3.9.4 5.6 1.2 1.7.8 2.9 2.2 3.8 4.2 1-1.4 2.2-2.6 3.9-3.7 1.6-1.1 3.6-1.6 5.8-1.6 1.7 0 3.3.2 4.7.6 1.4.4 2.7 1.1 3.7 2 1 .9 1.8 2.1 2.4 3.6.6 1.5.9 3.2.9 5.3v21.5h-8.8V81.5c0-1.1 0-2.1-.1-3-.1-1-.3-1.8-.7-2.5-.4-.7-.9-1.3-1.6-1.7-.7-.4-1.7-.6-2.9-.6s-2.2.2-3 .7c-.8.5-1.4 1.1-1.8 1.9-.4.8-.7 1.6-.9 2.6-.1 1-.2 2-.2 2.9v17.9h-8.8v-18c0-1 0-1.9-.1-2.8 0-.9-.2-1.8-.5-2.6s-.8-1.4-1.6-1.9c-.7-.5-1.8-.7-3.2-.7-.4 0-1 .1-1.6.3-.7.2-1.3.5-2 1.1-.6.5-1.2 1.3-1.6 2.2-.5 1-.7 2.2-.7 3.8v18.6h-8.8V67.6h8.2zM122.9 77.5c.1-2.1.6-3.8 1.6-5.1.9-1.4 2.1-2.5 3.5-3.3 1.4-.8 3-1.4 4.7-1.8 1.8-.4 3.5-.5 5.3-.5 1.6 0 3.2.1 4.9.3 1.7.2 3.2.7 4.5 1.3 1.4.7 2.5 1.6 3.4 2.8.9 1.2 1.3 2.7 1.3 4.7v16.7c0 1.4.1 2.8.2 4.2.2 1.3.5 2.3.9 3h-8.9c-.2-.5-.3-1-.4-1.5-.1-.5-.2-1-.2-1.6-1.4 1.4-3.1 2.5-5 3-1.9.6-3.8.9-5.8.9-1.5 0-3-.2-4.3-.6-1.3-.4-2.5-1-3.5-1.7-1-.8-1.8-1.8-2.3-3-.6-1.2-.8-2.6-.8-4.3 0-1.8.3-3.3 1-4.5.6-1.2 1.5-2.1 2.5-2.8 1-.7 2.2-1.2 3.5-1.6 1.3-.4 2.6-.6 3.9-.8 1.3-.2 2.6-.4 3.9-.5 1.3-.1 2.4-.3 3.4-.6 1-.2 1.8-.6 2.4-1.1.6-.5.8-1.2.8-2.1 0-1-.2-1.7-.5-2.3-.3-.6-.7-1-1.2-1.3-.5-.3-1.1-.5-1.8-.6-.7-.1-1.4-.2-2.2-.2-1.7 0-3.1.4-4.1 1.1-1 .7-1.6 2-1.7 3.7h-9v.1zm20.3 6.5c-.4.3-.8.6-1.4.8-.6.2-1.2.3-1.8.5-.6.1-1.3.2-2 .3l-2.1.3c-.7.1-1.3.3-2 .5-.6.2-1.2.5-1.7.8-.5.4-.9.8-1.1 1.3-.3.5-.4 1.2-.4 2s.1 1.4.4 2c.3.5.7 1 1.2 1.3.5.3 1.1.5 1.7.7.7.1 1.3.2 2 .2 1.7 0 3.1-.3 4-.9 1-.6 1.7-1.3 2.1-2.1.5-.8.7-1.6.8-2.5.1-.8.2-1.5.2-2V84h.1zM181.6 95.6c-1 1.7-2.4 3-4.1 3.8-1.7.8-3.6 1.1-5.7 1.1-2.4 0-4.5-.5-6.3-1.4-1.8-.9-3.3-2.2-4.5-3.8-1.2-1.6-2.1-3.4-2.7-5.5-.6-2.1-.9-4.2-.9-6.5 0-2.1.3-4.2.9-6.2.6-2 1.5-3.8 2.7-5.3 1.2-1.5 2.7-2.8 4.4-3.7 1.8-.9 3.8-1.4 6.2-1.4 1.9 0 3.7.4 5.4 1.2 1.7.8 3.1 2 4.1 3.6h.1V55.4h8.8v44.3h-8.4v-4.1zm-.3-15.9c-.2-1.2-.7-2.3-1.3-3.2-.6-.9-1.4-1.7-2.3-2.3-1-.6-2.2-.9-3.6-.9s-2.7.3-3.7.9c-1 .6-1.8 1.3-2.4 2.3-.6 1-1 2-1.3 3.3-.3 1.2-.4 2.5-.4 3.8 0 1.2.1 2.5.4 3.7.3 1.2.8 2.3 1.4 3.3.6 1 1.4 1.8 2.4 2.4 1 .6 2.1.9 3.5.9s2.7-.3 3.6-.9c1-.6 1.7-1.4 2.3-2.3.6-1 1-2.1 1.2-3.3.2-1.2.4-2.5.4-3.8.1-1.4 0-2.7-.2-3.9zM206.2 92c1.3 1.3 3.2 1.9 5.7 1.9 1.8 0 3.3-.4 4.6-1.3 1.3-.9 2.1-1.8 2.4-2.8h7.8c-1.2 3.8-3.1 6.6-5.7 8.3-2.6 1.7-5.7 2.5-9.3 2.5-2.5 0-4.8-.4-6.8-1.2-2-.8-3.7-2-5.1-3.4-1.4-1.5-2.5-3.3-3.3-5.3-.8-2.1-1.1-4.3-1.1-6.8 0-2.4.4-4.6 1.2-6.7.8-2.1 1.9-3.9 3.4-5.4 1.4-1.5 3.2-2.7 5.2-3.6 2-.9 4.2-1.3 6.7-1.3 2.7 0 5.1.5 7.1 1.6s3.7 2.5 5 4.3c1.3 1.8 2.2 3.8 2.8 6.1.6 2.3.8 4.7.6 7.1H204c.2 2.6.9 4.7 2.2 6zm10-16.9c-1.1-1.2-2.7-1.7-4.8-1.7-1.4 0-2.6.2-3.5.7-.9.5-1.7 1.1-2.2 1.8-.6.7-1 1.4-1.2 2.2-.2.8-.4 1.5-.4 2.1h14.3c-.4-2.3-1.2-3.9-2.2-5.1zM246.3 73.5v-5.9h5.3v-2.5c0-2.9.9-5.2 2.7-7 1.8-1.8 4.5-2.7 8.1-2.7.8 0 1.6 0 2.4.1.8.1 1.6.1 2.3.2v6.6c-1-.1-2.1-.2-3.2-.2-1.2 0-2.1.3-2.6.8-.5.6-.8 1.5-.8 2.8v1.9h6.1v5.9h-6.1v26.2h-8.8V73.5h-5.4zM270.5 76.7c.8-2.1 1.9-3.9 3.4-5.3 1.4-1.5 3.2-2.6 5.2-3.4 2-.8 4.3-1.2 6.8-1.2s4.8.4 6.9 1.2c2 .8 3.8 1.9 5.2 3.4 1.4 1.5 2.6 3.2 3.4 5.3.8 2.1 1.2 4.4 1.2 7 0 2.6-.4 4.9-1.2 6.9-.8 2.1-1.9 3.8-3.4 5.3-1.4 1.5-3.2 2.6-5.2 3.4-2 .8-4.3 1.2-6.9 1.2-2.5 0-4.8-.4-6.8-1.2-2-.8-3.8-1.9-5.2-3.4-1.4-1.5-2.6-3.2-3.4-5.3-.8-2.1-1.2-4.4-1.2-6.9 0-2.6.4-4.9 1.2-7zm8 10.7c.2 1.2.7 2.3 1.3 3.3.6 1 1.4 1.7 2.4 2.3 1 .6 2.2.9 3.7.9s2.7-.3 3.8-.9c1-.6 1.8-1.4 2.4-2.3.6-1 1-2.1 1.3-3.3.2-1.2.4-2.5.4-3.8 0-1.3-.1-2.5-.4-3.8-.2-1.2-.7-2.3-1.3-3.3-.6-1-1.4-1.7-2.4-2.3-1-.6-2.3-.9-3.8-.9s-2.7.3-3.7.9c-1 .6-1.8 1.4-2.4 2.3-.6 1-1 2-1.3 3.3-.2 1.2-.4 2.5-.4 3.8 0 1.3.1 2.6.4 3.8zM316.6 67.6v6h.1c.4-1 1-1.9 1.7-2.8.7-.8 1.5-1.6 2.4-2.2.9-.6 1.9-1.1 2.9-1.4 1-.3 2.1-.5 3.2-.5.6 0 1.2.1 1.9.3v8.2c-.4-.1-.9-.2-1.5-.2-.6-.1-1.1-.1-1.7-.1-1.6 0-3 .3-4.1.8-1.1.5-2 1.3-2.7 2.2-.7.9-1.2 2-1.5 3.3-.3 1.2-.4 2.6-.4 4v14.5h-8.8V67.6h8.5z"/></g></svg>